<svg width="20" height="16" viewBox="0 0 20 16" fill="none" xmlns="http://www.w3.org/2000/svg">
<path d="M0 1.7773V1.26016C0 0.925947 0.131696 0.605419 0.366117 0.369093C0.600537 0.132767 0.918479 0 1.25 0L18.75 0C19.0815 0 19.3995 0.132767 19.6339 0.369093C19.8683 0.605419 20 0.925947 20 1.26016V1.7773L10 8.07811L0 1.7773ZM10.3313 9.35561C10.2319 9.41812 10.1171 9.45127 10 9.45127C9.88288 9.45127 9.76811 9.41812 9.66875 9.35561L0 3.26335V13.8618C0 14.196 0.131696 14.5165 0.366117 14.7529C0.600537 14.9892 0.918479 15.122 1.25 15.122H18.75C19.0815 15.122 19.3995 14.9892 19.6339 14.7529C19.8683 14.5165 20 14.196 20 13.8618V3.26335L10.3313 9.35561Z" fill="#9700FF"/>
</svg>
